HIERARCHY
ROOT Hips
{
	OFFSET 0.000000 0.000000 0.000000
	CHANNELS 6 Xposition Yposition Zposition Xrotation Yrotation Zrotation
	JOINT Thigh.L
	{
		OFFSET 0.054830 0.026616 -0.093236
		CHANNELS 3 Xrotation Yrotation Zrotation
		JOINT Shin.L
		{
			OFFSET 0.059364 0.005984 -0.403313
			CHANNELS 3 Xrotation Yrotation Zrotation
			JOINT Foot.L
			{
				OFFSET -0.042043 0.030890 -0.428455
				CHANNELS 3 Xrotation Yrotation Zrotation
				JOINT Toe.L
				{
					OFFSET 0.047561 -0.124672 -0.062953
					CHANNELS 3 Xrotation Yrotation Zrotation
					End Site
					{
						OFFSET 0.000000 0.050000 0.000000
					}
				}
			}
		}
	}
	JOINT Thigh.R
	{
		OFFSET -0.059932 0.021057 -0.105633
		CHANNELS 3 Xrotation Yrotation Zrotation
		JOINT Shin.R
		{
			OFFSET -0.048419 0.013885 -0.385061
			CHANNELS 3 Xrotation Yrotation Zrotation
			JOINT Foot.R
			{
				OFFSET 0.014227 0.019205 -0.437230
				CHANNELS 3 Xrotation Yrotation Zrotation
				JOINT Toe.R
				{
					OFFSET -0.039172 -0.125564 -0.062904
					CHANNELS 3 Xrotation Yrotation Zrotation
					End Site
					{
						OFFSET 0.000000 0.050000 0.000000
					}
				}
			}
		}
	}
	JOINT Spine
	{
		OFFSET -0.002670 0.027530 0.111999
		CHANNELS 3 Xrotation Yrotation Zrotation
		JOINT Spine.2
		{
			OFFSET 0.008832 0.007114 0.138965
			CHANNELS 3 Xrotation Yrotation Zrotation
			JOINT Chest
			{
				OFFSET -0.010697 -0.022654 0.055190
				CHANNELS 3 Xrotation Yrotation Zrotation
				JOINT Neck
				{
					OFFSET -0.011928 0.025447 0.166462
					CHANNELS 3 Xrotation Yrotation Zrotation
					JOINT Head
					{
						OFFSET 0.025098 -0.021203 0.165238
						CHANNELS 3 Xrotation Yrotation Zrotation
						End Site
						{
							OFFSET 0.000000 0.050000 0.000000
						}
					}
				}
				JOINT Clavicle.L
				{
					OFFSET 0.046726 0.004714 0.085778
					CHANNELS 3 Xrotation Yrotation Zrotation
					JOINT UpperArm.L
					{
						OFFSET 0.124709 0.014326 0.057810
						CHANNELS 3 Xrotation Yrotation Zrotation
						JOINT ForeArm.L
						{
							OFFSET 0.266638 0.042193 -0.074445
							CHANNELS 3 Xrotation Yrotation Zrotation
							JOINT Hand.L
							{
								OFFSET 0.270247 0.001287 0.022001
								CHANNELS 3 Xrotation Yrotation Zrotation
								JOINT Thumb1.L
								{
									OFFSET 0.154603 0.000570 0.009737
									CHANNELS 3 Xrotation Yrotation Zrotation
									JOINT Thumb2.L
									{
										OFFSET 0.029901 0.000142 0.002434
										CHANNELS 3 Xrotation Yrotation Zrotation
										End Site
										{
											OFFSET 0.024917 0.000119 0.002029
										}
									}
								}
								JOINT Index1.L
								{
									OFFSET 0.137603 0.000570 0.009737
									CHANNELS 3 Xrotation Yrotation Zrotation
									JOINT Index2.L
									{
										OFFSET 0.029901 0.000142 0.002434
										CHANNELS 3 Xrotation Yrotation Zrotation
										JOINT Index3.L
										{
											OFFSET 0.021927 0.000104 0.001785
											CHANNELS 3 Xrotation Yrotation Zrotation
											End Site
											{
												OFFSET 0.017940 0.000085 0.001461
											}
										}
									}
								}
								JOINT Middle1.L
								{
									OFFSET 0.119603 0.000570 0.009737
									CHANNELS 3 Xrotation Yrotation Zrotation
									JOINT Middle2.L
									{
										OFFSET 0.030897 0.000147 0.002515
										CHANNELS 3 Xrotation Yrotation Zrotation
										JOINT Middle3.L
										{
											OFFSET 0.021927 0.000104 0.001785
											CHANNELS 3 Xrotation Yrotation Zrotation
											End Site
											{
												OFFSET 0.017940 0.000085 0.001461
											}
										}
									}
								}
								JOINT Ring1.L
								{
									OFFSET 0.101603 0.000570 0.009737
									CHANNELS 3 Xrotation Yrotation Zrotation
									JOINT Ring2.L
									{
										OFFSET 0.028904 0.000138 0.002353
										CHANNELS 3 Xrotation Yrotation Zrotation
										JOINT Ring3.L
										{
											OFFSET 0.019934 0.000095 0.001623
											CHANNELS 3 Xrotation Yrotation Zrotation
											End Site
											{
												OFFSET 0.016944 0.000081 0.001379
											}
										}
									}
								}
								JOINT Pinky1.L
								{
									OFFSET 0.085603 0.000570 0.009737
									CHANNELS 3 Xrotation Yrotation Zrotation
									JOINT Pinky2.L
									{
										OFFSET 0.023921 0.000114 0.001947
										CHANNELS 3 Xrotation Yrotation Zrotation
										JOINT Pinky3.L
										{
											OFFSET 0.016944 0.000081 0.001379
											CHANNELS 3 Xrotation Yrotation Zrotation
											End Site
											{
												OFFSET 0.013954 0.000066 0.001136
											}
										}
									}
								}
							}
						}
					}
				}
				JOINT Clavicle.R
				{
					OFFSET -0.047473 0.010816 0.084974
					CHANNELS 3 Xrotation Yrotation Zrotation
					JOINT UpperArm.R
					{
						OFFSET -0.108097 0.010443 0.053875
						CHANNELS 3 Xrotation Yrotation Zrotation
						JOINT ForeArm.R
						{
							OFFSET -0.284648 0.027365 -0.039206
							CHANNELS 3 Xrotation Yrotation Zrotation
							JOINT Hand.R
							{
								OFFSET -0.266647 0.014662 -0.005290
								CHANNELS 3 Xrotation Yrotation Zrotation
								JOINT Thumb1.R
								{
									OFFSET -0.154795 0.006587 -0.002376
									CHANNELS 3 Xrotation Yrotation Zrotation
									JOINT Thumb2.R
									{
										OFFSET -0.029949 0.001647 -0.000594
										CHANNELS 3 Xrotation Yrotation Zrotation
										End Site
										{
											OFFSET -0.024957 0.001372 -0.000495
										}
									}
								}
								JOINT Index1.R
								{
									OFFSET -0.137795 0.006587 -0.002376
									CHANNELS 3 Xrotation Yrotation Zrotation
									JOINT Index2.R
									{
										OFFSET -0.029949 0.001647 -0.000594
										CHANNELS 3 Xrotation Yrotation Zrotation
										JOINT Index3.R
										{
											OFFSET -0.021963 0.001208 -0.000436
											CHANNELS 3 Xrotation Yrotation Zrotation
											End Site
											{
												OFFSET -0.017969 0.000988 -0.000356
											}
										}
									}
								}
								JOINT Middle1.R
								{
									OFFSET -0.119795 0.006587 -0.002376
									CHANNELS 3 Xrotation Yrotation Zrotation
									JOINT Middle2.R
									{
										OFFSET -0.030947 0.001702 -0.000614
										CHANNELS 3 Xrotation Yrotation Zrotation
										JOINT Middle3.R
										{
											OFFSET -0.021963 0.001208 -0.000436
											CHANNELS 3 Xrotation Yrotation Zrotation
											End Site
											{
												OFFSET -0.017969 0.000988 -0.000356
											}
										}
									}
								}
								JOINT Ring1.R
								{
									OFFSET -0.101795 0.006587 -0.002376
									CHANNELS 3 Xrotation Yrotation Zrotation
									JOINT Ring2.R
									{
										OFFSET -0.028951 0.001592 -0.000574
										CHANNELS 3 Xrotation Yrotation Zrotation
										JOINT Ring3.R
										{
											OFFSET -0.019966 0.001098 -0.000396
											CHANNELS 3 Xrotation Yrotation Zrotation
											End Site
											{
												OFFSET -0.016971 0.000933 -0.000337
											}
										}
									}
								}
								JOINT Pinky1.R
								{
									OFFSET -0.085795 0.006587 -0.002376
									CHANNELS 3 Xrotation Yrotation Zrotation
									JOINT Pinky2.R
									{
										OFFSET -0.023959 0.001317 -0.000475
										CHANNELS 3 Xrotation Yrotation Zrotation
										JOINT Pinky3.R
										{
											OFFSET -0.016971 0.000933 -0.000337
											CHANNELS 3 Xrotation Yrotation Zrotation
											End Site
											{
												OFFSET -0.013976 0.000769 -0.000277
											}
										}
									}
								}
							}
						}
					}
				}
			}
		}
	}
}
MOTION
Frames: 7
Frame Time: 0.03333333
0.003288 -0.063571 1.106386 -8.238999 -0.154259 -2.030083 8.743163 -3.035054 4.454738 1.536513 1.247416 -5.673331 -5.551529 -1.518191 11.325312 -0.543109 -1.497058 -1.087492 3.429790 4.341544 -3.891341 11.628357 2.119004 3.276279 -5.808371 -2.603281 -8.602686 -0.397439 -1.537767 0.574214 6.993695 0.003521 1.575748 -3.750069 1.349692 -0.909692 3.649521 -0.427806 -0.116488 6.946206 3.823454 1.677444 8.554657 0.576828 2.772209 -0.705529 21.868715 -1.977673 22.953105 43.991591 -22.350483 16.582745 -0.144333 -27.995889 -1.423967 2.720915 -10.489995 0.000000 0.000000 0.000000 0.000000 0.000000 0.000000 0.000000 0.000000 0.000000 0.000000 0.000000 0.000000 0.000000 0.000000 0.000000 0.000000 0.000000 0.000000 0.000000 0.000000 0.000000 0.000000 0.000000 0.000000 0.000000 0.000000 0.000000 0.000000 0.000000 0.000000 0.000000 0.000000 0.000000 0.000000 0.000000 0.000000 0.000000 0.000000 0.000000 0.000000 0.000000 0.000000 0.893678 -21.885010 7.555354 27.418474 -45.989892 23.475018 11.509105 2.873187 30.841238 3.438696 -7.103172 6.642816 0.000000 0.000000 0.000000 0.000000 0.000000 0.000000 0.000000 0.000000 0.000000 0.000000 0.000000 0.000000 0.000000 0.000000 0.000000 0.000000 0.000000 0.000000 0.000000 0.000000 0.000000 0.000000 0.000000 0.000000 0.000000 0.000000 0.000000 0.000000 0.000000 0.000000 0.000000 0.000000 0.000000 0.000000 0.000000 0.000000 0.000000 0.000000 0.000000 0.000000 0.000000 0.000000
0.002321 -0.062984 1.106539 -8.293813 -0.108001 -2.116910 8.933216 -2.972424 4.400178 1.431882 1.164217 -5.742787 -5.561928 -1.561332 11.441086 -0.539155 -1.514072 -1.128496 3.652966 4.336194 -3.943314 11.406190 2.174828 3.380388 -5.709629 -2.651737 -8.486336 -0.367064 -1.501064 0.603998 6.747454 -0.018994 1.680533 -3.533523 1.340349 -0.876907 3.427200 -0.362704 -0.054065 7.270834 3.926358 1.493796 8.747747 0.676247 2.582329 -0.700671 21.884495 -1.887403 23.123319 44.152894 -22.457553 16.325977 -0.182384 -27.826236 -1.220131 2.879211 -10.581302 0.000000 0.000000 0.000000 0.000000 0.000000 0.000000 0.000000 0.000000 0.000000 0.000000 0.000000 0.000000 0.000000 0.000000 0.000000 0.000000 0.000000 0.000000 0.000000 0.000000 0.000000 0.000000 0.000000 0.000000 0.000000 0.000000 0.000000 0.000000 0.000000 0.000000 0.000000 0.000000 0.000000 0.000000 0.000000 0.000000 0.000000 0.000000 0.000000 0.000000 0.000000 0.000000 1.036143 -21.843583 7.592875 27.500969 -46.071831 23.522202 11.363878 2.762652 30.500503 3.525263 -6.992100 6.725730 0.000000 0.000000 0.000000 0.000000 0.000000 0.000000 0.000000 0.000000 0.000000 0.000000 0.000000 0.000000 0.000000 0.000000 0.000000 0.000000 0.000000 0.000000 0.000000 0.000000 0.000000 0.000000 0.000000 0.000000 0.000000 0.000000 0.000000 0.000000 0.000000 0.000000 0.000000 0.000000 0.000000 0.000000 0.000000 0.000000 0.000000 0.000000 0.000000 0.000000 0.000000 0.000000
0.002420 -0.062773 1.106676 -8.356745 -0.109289 -2.089130 9.143695 -2.947943 4.398406 1.225087 1.118587 -5.784695 -5.501491 -1.530230 11.451532 -0.535922 -1.506819 -1.146910 3.838863 4.333344 -3.950315 11.279906 2.164401 3.388401 -5.673756 -2.624108 -8.482642 -0.354022 -1.491921 0.621415 6.528569 -0.045058 1.729533 -3.392457 1.326057 -0.834022 3.300500 -0.333247 -0.007368 7.289302 3.930965 1.434907 8.843880 0.765658 2.512846 -0.745945 21.949704 -1.774415 23.201931 44.167429 -22.402114 16.277680 -0.245164 -27.879811 -1.164583 3.075915 -10.628863 0.000000 0.000000 0.000000 0.000000 0.000000 0.000000 0.000000 0.000000 0.000000 0.000000 0.000000 0.000000 0.000000 0.000000 0.000000 0.000000 0.000000 0.000000 0.000000 0.000000 0.000000 0.000000 0.000000 0.000000 0.000000 0.000000 0.000000 0.000000 0.000000 0.000000 0.000000 0.000000 0.000000 0.000000 0.000000 0.000000 0.000000 0.000000 0.000000 0.000000 0.000000 0.000000 1.119334 -21.909525 7.535590 27.524510 -46.077888 23.447811 11.248983 2.714763 30.403945 3.519401 -7.097607 6.760982 0.000000 0.000000 0.000000 0.000000 0.000000 0.000000 0.000000 0.000000 0.000000 0.000000 0.000000 0.000000 0.000000 0.000000 0.000000 0.000000 0.000000 0.000000 0.000000 0.000000 0.000000 0.000000 0.000000 0.000000 0.000000 0.000000 0.000000 0.000000 0.000000 0.000000 0.000000 0.000000 0.000000 0.000000 0.000000 0.000000 0.000000 0.000000 0.000000 0.000000 0.000000 0.000000
0.002256 -0.062651 1.106766 -8.400112 -0.102630 -2.059319 9.273729 -2.942614 4.403321 1.107334 1.106737 -5.825172 -5.475270 -1.508041 11.445671 -0.536955 -1.508249 -1.159758 3.994690 4.337942 -3.966700 11.141016 2.148891 3.380411 -5.634144 -2.633788 -8.472596 -0.344727 -1.481887 0.636464 6.391923 -0.055090 1.760144 -3.289526 1.315173 -0.817205 3.224695 -0.316379 0.014769 7.312134 3.944535 1.418255 8.901755 0.816716 2.456553 -0.758405 21.985495 -1.731164 23.245792 44.191184 -22.362620 16.276041 -0.302248 -27.928419 -1.093054 3.199113 -10.665922 0.000000 0.000000 0.000000 0.000000 0.000000 0.000000 0.000000 0.000000 0.000000 0.000000 0.000000 0.000000 0.000000 0.000000 0.000000 0.000000 0.000000 0.000000 0.000000 0.000000 0.000000 0.000000 0.000000 0.000000 0.000000 0.000000 0.000000 0.000000 0.000000 0.000000 0.000000 0.000000 0.000000 0.000000 0.000000 0.000000 0.000000 0.000000 0.000000 0.000000 0.000000 0.000000 1.163317 -21.948128 7.517455 27.523950 -46.062441 23.394019 11.234122 2.681438 30.313621 3.540716 -7.151134 6.784778 0.000000 0.000000 0.000000 0.000000 0.000000 0.000000 0.000000 0.000000 0.000000 0.000000 0.000000 0.000000 0.000000 0.000000 0.000000 0.000000 0.000000 0.000000 0.000000 0.000000 0.000000 0.000000 0.000000 0.000000 0.000000 0.000000 0.000000 0.000000 0.000000 0.000000 0.000000 0.000000 0.000000 0.000000 0.000000 0.000000 0.000000 0.000000 0.000000 0.000000 0.000000 0.000000
0.002254 -0.062666 1.106819 -8.422152 -0.111907 -2.094028 9.330555 -2.907736 4.377719 1.067556 1.083121 -5.853566 -5.448918 -1.522392 11.483470 -0.538934 -1.516202 -1.175177 4.092621 4.354452 -3.978881 11.008030 2.155848 3.369251 -5.615223 -2.664377 -8.429215 -0.343326 -1.469491 0.650900 6.284248 -0.042969 1.805002 -3.150590 1.307935 -0.807422 3.133017 -0.300290 0.048259 7.391279 3.966785 1.401963 8.856276 0.810547 2.428625 -0.765647 22.005438 -1.733741 23.297856 44.209144 -22.371672 16.262719 -0.367110 -27.907575 -1.009970 3.344133 -10.736916 0.000000 0.000000 0.000000 0.000000 0.000000 0.000000 0.000000 0.000000 0.000000 0.000000 0.000000 0.000000 0.000000 0.000000 0.000000 0.000000 0.000000 0.000000 0.000000 0.000000 0.000000 0.000000 0.000000 0.000000 0.000000 0.000000 0.000000 0.000000 0.000000 0.000000 0.000000 0.000000 0.000000 0.000000 0.000000 0.000000 0.000000 0.000000 0.000000 0.000000 0.000000 0.000000 1.211252 -21.965580 7.547277 27.518866 -46.096427 23.379088 11.160867 2.703172 30.230954 3.543110 -7.209513 6.843471 0.000000 0.000000 0.000000 0.000000 0.000000 0.000000 0.000000 0.000000 0.000000 0.000000 0.000000 0.000000 0.000000 0.000000 0.000000 0.000000 0.000000 0.000000 0.000000 0.000000 0.000000 0.000000 0.000000 0.000000 0.000000 0.000000 0.000000 0.000000 0.000000 0.000000 0.000000 0.000000 0.000000 0.000000 0.000000 0.000000 0.000000 0.000000 0.000000 0.000000 0.000000 0.000000
0.002494 -0.063233 1.106884 -8.459185 -0.141803 -2.116766 9.359273 -2.872817 4.348586 1.048332 1.080758 -5.885306 -5.405920 -1.525138 11.522513 -0.546216 -1.518406 -1.178981 4.140777 4.386333 -3.971861 10.943570 2.155997 3.361748 -5.599669 -2.679296 -8.422875 -0.347249 -1.452134 0.661471 6.262512 -0.033694 1.817461 -3.109377 1.318745 -0.797321 3.107230 -0.289554 0.066629 7.399345 3.966316 1.403252 8.841530 0.808380 2.426976 -0.776327 22.023631 -1.733464 23.315381 44.185416 -22.356632 16.234387 -0.414427 -27.957199 -1.033464 3.407284 -10.771532 0.000000 0.000000 0.000000 0.000000 0.000000 0.000000 0.000000 0.000000 0.000000 0.000000 0.000000 0.000000 0.000000 0.000000 0.000000 0.000000 0.000000 0.000000 0.000000 0.000000 0.000000 0.000000 0.000000 0.000000 0.000000 0.000000 0.000000 0.000000 0.000000 0.000000 0.000000 0.000000 0.000000 0.000000 0.000000 0.000000 0.000000 0.000000 0.000000 0.000000 0.000000 0.000000 1.219207 -21.965621 7.582080 27.538821 -46.099255 23.407479 11.140851 2.695283 30.215951 3.535318 -7.219986 6.876529 0.000000 0.000000 0.000000 0.000000 0.000000 0.000000 0.000000 0.000000 0.000000 0.000000 0.000000 0.000000 0.000000 0.000000 0.000000 0.000000 0.000000 0.000000 0.000000 0.000000 0.000000 0.000000 0.000000 0.000000 0.000000 0.000000 0.000000 0.000000 0.000000 0.000000 0.000000 0.000000 0.000000 0.000000 0.000000 0.000000 0.000000 0.000000 0.000000 0.000000 0.000000 0.000000
0.002768 -0.063488 1.106923 -8.470662 -0.165040 -2.124137 9.365160 -2.844108 4.335221 1.034697 1.059384 -5.891681 -5.380843 -1.503557 11.533426 -0.545614 -1.510798 -1.189218 4.172743 4.403426 -3.966044 10.883290 2.156123 3.342085 -5.588854 -2.691778 -8.406550 -0.353872 -1.452033 0.663127 6.249678 -0.044603 1.833888 -3.048026 1.318116 -0.783522 3.067710 -0.277941 0.099921 7.432187 4.012878 1.375054 8.777486 0.799898 2.426096 -0.773232 22.064319 -1.770482 23.326137 44.162588 -22.340760 16.152969 -0.456746 -27.987538 -1.015067 3.457807 -10.820211 0.000000 0.000000 0.000000 0.000000 0.000000 0.000000 0.000000 0.000000 0.000000 0.000000 0.000000 0.000000 0.000000 0.000000 0.000000 0.000000 0.000000 0.000000 0.000000 0.000000 0.000000 0.000000 0.000000 0.000000 0.000000 0.000000 0.000000 0.000000 0.000000 0.000000 0.000000 0.000000 0.000000 0.000000 0.000000 0.000000 0.000000 0.000000 0.000000 0.000000 0.000000 0.000000 1.249255 -21.973713 7.631895 27.527047 -46.077927 23.346996 11.144457 2.703641 30.305685 3.540986 -7.161705 6.963804 0.000000 0.000000 0.000000 0.000000 0.000000 0.000000 0.000000 0.000000 0.000000 0.000000 0.000000 0.000000 0.000000 0.000000 0.000000 0.000000 0.000000 0.000000 0.000000 0.000000 0.000000 0.000000 0.000000 0.000000 0.000000 0.000000 0.000000 0.000000 0.000000 0.000000 0.000000 0.000000 0.000000 0.000000 0.000000 0.000000 0.000000 0.000000 0.000000 0.000000 0.000000 0.000000
